<?xml version="1.0" encoding="utf-8"?>
<!-- Generator: Adobe Illustrator 22.0.0, SVG Export Plug-In . SVG Version: 6.00 Build 0)  -->
<svg version="1.1" xmlns="http://www.w3.org/2000/svg" xmlns:xlink="http://www.w3.org/1999/xlink" x="0px" y="0px"
	 viewBox="0 0 1001 875.9" enable-background="new 0 0 1001 875.9" xml:space="preserve">
<g id="Layer_2" display="none">
	<rect display="inline" stroke="#000000" stroke-width="4" stroke-miterlimit="10" width="1001" height="875.9"/>
</g>
<g id="Layer_1">
	<g>
		<path fill="#FFFFFF" d="M842,456.2c0.2-2.8,0.3-5.7,0.4-8.6c0.1-3.3,0.2-6.7,0.2-10c0-16-1.2-32-3.6-47.7
			c-5.8-38-18.9-75-38.3-108.5c-0.1-0.1-0.1-0.2-0.2-0.3c-0.1-0.2-0.2-0.3-0.3-0.5c-4.4-7.6-9.1-15-14.2-22.2
			c-0.2-0.3-0.4-0.6-0.6-0.9c-1.6-2.2-3.1-4.4-4.8-6.6c-0.7-0.9-1.4-1.8-2.1-2.7c-1.2-1.5-2.3-3.1-3.6-4.6c-0.8-1-1.6-2-2.4-3
			c-1.1-1.4-2.3-2.8-3.4-4.1c-0.9-1-1.8-2-2.6-3.1c-1.1-1.3-2.2-2.6-3.4-3.9c-0.9-1-1.9-2.1-2.8-3.1c-1.1-1.2-2.3-2.5-3.4-3.7
			c-1-1-2-2-3-3.1c-1.1-1.2-2.3-2.3-3.4-3.5c-1-1-2.1-2-3.1-3c-1.2-1.1-2.3-2.2-3.5-3.4c-1.1-1-2.2-2-3.2-3
			c-1.2-1.1-2.4-2.2-3.6-3.2c-0.3-0.3-0.6-0.5-0.9-0.8C789.5,257.9,820,331.5,820,410c0,163.8-133.2,297-297,297
			c-13,0-26.1-0.9-39-2.6c-66.7-8.7-129.2-40.5-175.9-89.4c-46.8-49-75.6-113-81.1-180.3c-4.5-14.7-8-29.8-10.3-44.8
			c-2.4-16-3.7-32.3-3.7-48.5c0-46.5,9.9-91.4,29.4-133.5c20.4-44,51.3-83.4,89.2-113.9c56.9-45.7,125.6-69.9,198.6-69.9
			c3.3,0,6.6,0.1,9.9,0.2c1.6,0,3.2,0.1,4.8,0.2c1.7,0.1,3.3,0.1,5,0.2c-15.7-2-31.5-3.1-47.4-3.1c-197.5,0-358.9,154.5-367.4,351.7
			c-0.3,6.4-0.4,11.4-0.4,16.1c0,4.7,0.1,9.7,0.4,16.1c8.5,197.2,169.9,351.7,367.4,351.7c61.7,0,122.7-15.6,176.5-45.1
			c4.6-2.5,9-5.1,13.3-7.6c2.8-1.7,5.5-3.4,8.2-5.2c83.4-54.3,135.3-143.7,141.4-242C841.9,457.1,841.9,456.6,842,456.2z"/>
		<path fill="#FFFFFF" d="M692.3,74.5c-4.4-2.6-8.8-5.2-13.3-7.7c-5.7-3.1-11.4-6-17.3-8.7C633,44.8,602.4,36,570.9,31.9
			c-10.2-1.3-20.6-2.2-30.9-2.5c-3.2-0.1-6.5-0.2-9.7-0.2c-60.6,0-118.2,16.9-168.4,49.3c-1.9,1.2-3.7,2.4-5.5,3.7
			c-3.7,2.5-7.3,5-10.9,7.7c-3.6,2.6-7.1,5.4-10.6,8.2c-37.3,30-67.7,68.8-87.8,112.1c-19.2,41.4-29,85.6-29,131.4
			c0,15.9,1.2,32,3.6,47.7c0.3,1.9,0.6,3.7,0.9,5.6c1,5.7,2.1,11.3,3.4,17c0-0.6,0-1.1,0-1.7c0-163.8,133.2-297,297-297
			c56.5,0,111.5,16,159.1,46.2c2.1,1.1,4.2,2.3,6.3,3.5c0.5,0.3,1.1,0.6,1.6,0.9c1.9,1.1,3.8,2.3,5.7,3.4c0.7,0.4,1.4,0.9,2.2,1.3
			c1.6,1,3.3,2.1,4.9,3.2c0.9,0.6,1.9,1.2,2.8,1.8c1.4,1,2.9,2,4.3,3c1.1,0.7,2.2,1.5,3.2,2.2c1.2,0.9,2.5,1.8,3.7,2.7
			c1.2,0.9,2.5,1.8,3.7,2.7c1,0.8,2,1.6,3.1,2.4c1.4,1.1,2.8,2.1,4.2,3.2c0.9,0.7,1.7,1.4,2.6,2.2c1.5,1.2,3,2.4,4.4,3.6
			c0.7,0.6,1.3,1.1,2,1.7c1.7,1.4,3.3,2.8,4.9,4.3c0.4,0.4,0.8,0.8,1.2,1.1c1.8,1.7,3.7,3.3,5.5,5c0.3,0.3,0.5,0.5,0.8,0.8
			c15.2,14.5,28.9,30.4,41,47.5c26.1,37.2,44.1,80.1,52.2,124.6c0.5,3,1,5.9,1.5,8.9c2.4,15.9,3.7,32.2,3.7,48.5
			c0,3.4-0.1,6.9-0.2,10.3c0,0.4,0,0.8-0.1,1.3c-0.1,3-0.3,6.1-0.4,9.1c0,0.2,0,0.3,0,0.5c-3.8,57-22.7,111-54,157.1
			c49.8-63.5,77.6-142.4,77.6-226.4C870.3,259.5,803.8,141.7,692.3,74.5z"/>
	</g>
	<g>
		<path fill="#FFFFFF" d="M43.6,857.5c-8.8,0-15.8-2.9-21.1-8.7c-5.3-5.8-7.9-13.3-7.9-22.6c0-10,2.7-17.9,8.1-23.9
			c5.4-5.9,12.7-8.9,22-8.9c8.6,0,15.5,2.9,20.7,8.7c5.2,5.8,7.9,13.3,7.9,22.6c0,10.1-2.7,18.1-8,24
			C59.8,854.5,52.6,857.5,43.6,857.5z M44.1,799.9c-6.5,0-11.8,2.4-15.9,7.1c-4.1,4.7-6.1,10.9-6.1,18.5c0,7.6,2,13.8,5.9,18.5
			c4,4.7,9.1,7,15.5,7c6.8,0,12.2-2.2,16.1-6.7c3.9-4.4,5.9-10.7,5.9-18.7c0-8.2-1.9-14.5-5.7-19C56,802.2,50.8,799.9,44.1,799.9z"
			/>
		<path fill="#FFFFFF" d="M137,833v23.5h-7.3v-62.1h25.7c6.6,0,11.8,1.6,15.4,4.8c3.6,3.2,5.5,7.8,5.5,13.7s-2,10.7-6.1,14.5
			c-4.1,3.8-9.5,5.6-16.4,5.6H137z M137,801v25.4h16.2c5,0,8.8-1.1,11.5-3.4c2.6-2.3,4-5.5,4-9.7c0-8.2-4.8-12.3-14.5-12.3H137z"/>
		<path fill="#FFFFFF" d="M273.7,856.4h-41.5v-62.1h40.1v6.6h-32.8v20.6h31v6.5h-31v21.7h34.2V856.4z"/>
		<path fill="#FFFFFF" d="M380,856.4h-8.9L339.2,807c-0.8-1.2-1.5-2.5-2-3.9h-0.3c0.2,1.3,0.3,4.2,0.3,8.5v44.8H330v-62.1h9.4
			l31.1,48.7c1.3,2,2.1,3.4,2.5,4.2h0.2c-0.3-1.8-0.4-4.8-0.4-9.1v-43.7h7.3V856.4z"/>
		<path fill="#FFFFFF" d="M437.2,853.9v-8.6c1,0.9,2.2,1.6,3.5,2.3c1.4,0.7,2.8,1.3,4.3,1.8c1.5,0.5,3,0.8,4.6,1.1s2.9,0.4,4.2,0.4
			c4.5,0,7.8-0.8,10-2.5c2.2-1.7,3.3-4,3.3-7.2c0-1.7-0.4-3.1-1.1-4.4c-0.7-1.2-1.8-2.4-3.1-3.4c-1.3-1-2.8-2-4.6-2.9
			c-1.8-0.9-3.7-1.9-5.7-3c-2.2-1.1-4.2-2.2-6.1-3.3c-1.9-1.1-3.5-2.4-4.9-3.7c-1.4-1.4-2.5-2.9-3.3-4.6c-0.8-1.7-1.2-3.7-1.2-6
			c0-2.8,0.6-5.3,1.9-7.4c1.2-2.1,2.9-3.8,4.9-5.2c2-1.4,4.3-2.4,6.9-3c2.6-0.7,5.2-1,7.9-1c6.1,0,10.6,0.7,13.4,2.2v8.2
			c-3.7-2.5-8.4-3.8-14.1-3.8c-1.6,0-3.2,0.2-4.8,0.5c-1.6,0.3-3,0.9-4.2,1.6c-1.2,0.8-2.3,1.7-3,2.9c-0.8,1.2-1.2,2.6-1.2,4.3
			c0,1.6,0.3,3,0.9,4.1c0.6,1.2,1.5,2.2,2.6,3.2c1.2,1,2.6,1.9,4.2,2.8c1.7,0.9,3.6,1.9,5.7,2.9c2.2,1.1,4.3,2.2,6.3,3.5
			c2,1.2,3.7,2.6,5.2,4c1.5,1.5,2.7,3.1,3.6,4.9c0.9,1.8,1.3,3.8,1.3,6.1c0,3.1-0.6,5.6-1.8,7.8c-1.2,2.1-2.8,3.8-4.8,5.2
			c-2,1.3-4.4,2.3-7,2.9c-2.7,0.6-5.5,0.9-8.4,0.9c-1,0-2.2-0.1-3.6-0.2c-1.4-0.2-2.9-0.4-4.4-0.7c-1.5-0.3-2.9-0.7-4.3-1.1
			C439.1,855,438,854.5,437.2,853.9z"/>
		<path fill="#FFFFFF" d="M538.8,833v23.5h-7.3v-62.1h25.7c6.6,0,11.8,1.6,15.4,4.8c3.6,3.2,5.5,7.8,5.5,13.7s-2,10.7-6.1,14.5
			s-9.5,5.6-16.4,5.6H538.8z M538.8,801v25.4H555c5,0,8.8-1.1,11.5-3.4c2.6-2.3,4-5.5,4-9.7c0-8.2-4.8-12.3-14.5-12.3H538.8z"/>
		<path fill="#FFFFFF" d="M680.7,856.4h-7.3v-28.3h-32.1v28.3h-7.3v-62.1h7.3v27.2h32.1v-27.2h7.3V856.4z"/>
		<path fill="#FFFFFF" d="M782.8,856.4h-41.5v-62.1h40.1v6.6h-32.8v20.6h31v6.5h-31v21.7h34.2V856.4z"/>
		<path fill="#FFFFFF" d="M892.2,856.4h-8.7L873.1,839c-1-1.6-1.9-3-2.8-4.1c-0.9-1.1-1.8-2.1-2.7-2.8c-0.9-0.7-1.9-1.2-3-1.6
			c-1.1-0.3-10.9-0.5-12.3-0.5h-6v26.4h-7.3v-62.1h27.1c2.7,0,5.2,0.3,7.5,1c2.3,0.7,4.3,1.7,6,3.1c1.7,1.4,3,3.1,4,5.2
			c1,2.1,1.4,4.5,1.4,7.2c0,2.2-0.3,4.1-1,5.9c-0.6,1.8-1.6,3.4-2.8,4.8c-1.2,1.4-2.6,2.6-4.3,3.6c-1.7,1-3.6,1.8-5.7,2.3v0.2
			c1,0.5,1.9,1,2.7,1.6c0.8,0.6,1.5,1.3,2.2,2.1c0.7,0.8,1.4,1.7,2.1,2.7c0.7,1,1.4,2.2,2.3,3.6L892.2,856.4z M846.3,801v22.5h18.5
			c1.8,0,3.5-0.3,5-0.8c1.5-0.5,2.9-1.3,4-2.4c1.1-1,2-2.3,2.6-3.8c0.6-1.5,1-3.2,1-5c0-3.3-1.1-5.9-3.2-7.8
			c-2.1-1.9-5.3-2.8-9.3-2.8H846.3z"/>
		<path fill="#FFFFFF" d="M986.5,856.4H945v-62.1h40.1v6.6h-32.8v20.6h31v6.5h-31v21.7h34.2V856.4z"/>
	</g>
</g>
</svg>
