<?xml version="1.0" encoding="utf-8"?>
<!-- Generator: Adobe Illustrator 22.0.0, SVG Export Plug-In . SVG Version: 6.00 Build 0)  -->
<svg version="1.1" xmlns="http://www.w3.org/2000/svg" xmlns:xlink="http://www.w3.org/1999/xlink" x="0px" y="0px"
	 viewBox="0 0 1814.9 469" enable-background="new 0 0 1814.9 469" xml:space="preserve">
<g id="Layer_2" display="none">
	<rect display="inline" stroke="#000000" stroke-width="4" stroke-miterlimit="10" width="1814.9" height="469"/>
</g>
<g id="Layer_1">
	<g>
		<path fill="#FFFFFF" d="M348.8,430.4c2.7-1.5,5.4-3,8.1-4.6C354.2,427.4,351.5,428.9,348.8,430.4z"/>
		<path fill="#FFFFFF" d="M348.8,430.5L348.8,430.5c2.7-1.6,5.4-3.2,8-4.7l0.1,0.1C354.3,427.4,351.5,429,348.8,430.5
			C348.8,430.5,348.8,430.5,348.8,430.5L348.8,430.5L348.8,430.5z"/>
	</g>
	<g opacity="0.4">
		<path fill="#FFFFFF" d="M396.9,215.1c0,0.1,0,0.2,0,0.3c0,0,0,0,0,0C396.9,215.3,396.9,215.2,396.9,215.1z"/>
	</g>
	<g>
		<path fill="#FFFFFF" d="M446.3,274.7c0.1-1.7,0.2-3.4,0.2-5.2c0.1-2,0.1-4,0.1-6c0-9.6-0.7-19.3-2.2-28.8
			c-3.5-22.9-11.4-45.2-23.1-65.4c0-0.1-0.1-0.1-0.1-0.2c-0.1-0.1-0.1-0.2-0.2-0.3c-2.7-4.6-5.5-9-8.5-13.4
			c-0.1-0.2-0.3-0.3-0.4-0.5c-0.9-1.3-1.9-2.6-2.9-4c-0.4-0.5-0.8-1.1-1.2-1.6c-0.7-0.9-1.4-1.9-2.1-2.8c-0.5-0.6-1-1.2-1.5-1.8
			c-0.7-0.8-1.4-1.7-2.1-2.5c-0.5-0.6-1.1-1.2-1.6-1.8c-0.7-0.8-1.4-1.6-2-2.3c-0.6-0.6-1.1-1.2-1.7-1.9c-0.7-0.7-1.4-1.5-2.1-2.2
			c-0.6-0.6-1.2-1.2-1.8-1.8c-0.7-0.7-1.4-1.4-2.1-2.1c-0.6-0.6-1.2-1.2-1.9-1.8c-0.7-0.7-1.4-1.4-2.1-2c-0.6-0.6-1.3-1.2-1.9-1.8
			c-0.7-0.7-1.4-1.3-2.1-1.9c-0.2-0.2-0.4-0.3-0.5-0.5c32.1,33,50.5,77.4,50.5,124.7c0,98.7-80.3,179.1-179.1,179.1
			c-7.8,0-15.7-0.5-23.5-1.5c-40.2-5.3-77.9-24.4-106-53.9c-28.2-29.5-45.6-68.1-48.9-108.7c-2.7-8.9-4.8-17.9-6.2-27
			c-1.5-9.6-2.2-19.5-2.2-29.2c0-28,6-55.1,17.8-80.5c12.3-26.5,30.9-50.3,53.8-68.7c34.3-27.6,75.7-42.2,119.7-42.2
			c2,0,4,0,5.9,0.1c1,0,1.9,0.1,2.9,0.1c1,0,2,0.1,3,0.1c-9.5-1.2-19-1.9-28.6-1.9c-119.1,0-216.4,93.2-221.5,212.1
			c-0.2,3.9-0.2,6.9-0.2,9.7c0,2.8,0.1,5.8,0.2,9.7c5.1,118.9,102.4,212.1,221.5,212.1c37.2,0,74-9.4,106.4-27.2
			c2.7-1.5,5.4-3.1,8-4.6c1.7-1,3.3-2.1,4.9-3.1c50.3-32.7,81.6-86.7,85.3-145.9C446.3,275.2,446.3,275,446.3,274.7z"/>
		<path fill="#FFFFFF" d="M356.1,44.5c-2.6-1.6-5.3-3.1-8-4.6c-3.4-1.9-6.9-3.6-10.4-5.2c-17.3-8-35.8-13.3-54.7-15.8
			c-6.2-0.8-12.4-1.3-18.6-1.5c-2-0.1-3.9-0.1-5.9-0.1c-36.6,0-71.3,10.2-101.5,29.7c-1.1,0.7-2.2,1.5-3.3,2.2
			c-2.2,1.5-4.4,3-6.6,4.6s-4.3,3.2-6.4,4.9c-22.5,18.1-40.8,41.5-53,67.6c-11.6,25-17.5,51.6-17.5,79.2c0,9.6,0.7,19.3,2.2,28.8
			c0.2,1.1,0.4,2.2,0.5,3.4c0.6,3.4,1.3,6.8,2.1,10.2c0-0.3,0-0.7,0-1c0-98.7,80.3-179.1,179.1-179.1c34.1,0,67.3,9.6,95.9,27.8
			c1.3,0.7,2.5,1.4,3.8,2.1c0.3,0.2,0.7,0.4,1,0.6c1.1,0.7,2.3,1.4,3.4,2.1c0.4,0.3,0.9,0.5,1.3,0.8c1,0.6,2,1.3,3,1.9
			c0.6,0.4,1.1,0.7,1.7,1.1c0.9,0.6,1.7,1.2,2.6,1.8c0.6,0.4,1.3,0.9,2,1.3c0.7,0.5,1.5,1.1,2.2,1.6c0.7,0.5,1.5,1.1,2.2,1.6
			c0.6,0.5,1.2,1,1.8,1.4c0.8,0.6,1.7,1.3,2.5,1.9c0.5,0.4,1.1,0.9,1.6,1.3c0.9,0.7,1.8,1.5,2.7,2.2c0.4,0.3,0.8,0.7,1.2,1
			c1,0.9,2,1.7,3,2.6c0.3,0.2,0.5,0.5,0.8,0.7c1.1,1,2.2,2,3.3,3c0.2,0.2,0.3,0.3,0.5,0.5c9.1,8.7,17.4,18.3,24.7,28.6
			c15.7,22.4,26.6,48.3,31.5,75.1c0.3,1.8,0.6,3.6,0.9,5.4c1.5,9.6,2.2,19.4,2.2,29.2c0,2.1,0,4.1-0.1,6.2c0,0.3,0,0.5,0,0.8
			c-0.1,1.8-0.2,3.7-0.3,5.5c0,0.1,0,0.2,0,0.3c-2.3,34.4-13.7,67-32.6,94.7c30-38.3,46.8-85.9,46.8-136.5
			C463.4,156.1,423.3,85.1,356.1,44.5z"/>
	</g>
	<g>
		<path fill="#FFFFFF" d="M558.4,287.3c-11.5,0-20.7-3.8-27.6-11.3c-6.9-7.6-10.4-17.4-10.4-29.5c0-13,3.5-23.4,10.5-31.1
			c7-7.7,16.6-11.6,28.7-11.6c11.2,0,20.2,3.8,27,11.3c6.8,7.5,10.2,17.4,10.2,29.5c0,13.2-3.5,23.6-10.5,31.3
			C579.5,283.4,570.2,287.3,558.4,287.3z M559.1,212.2c-8.5,0-15.4,3.1-20.7,9.2c-5.3,6.1-8,14.2-8,24.1c0,10,2.6,18,7.8,24.1
			c5.2,6.1,11.9,9.1,20.2,9.1c8.9,0,15.9-2.9,21-8.7c5.1-5.8,7.7-13.9,7.7-24.3c0-10.7-2.5-18.9-7.4-24.8
			C574.7,215.2,567.8,212.2,559.1,212.2z"/>
		<path fill="#FFFFFF" d="M680.2,255.3v30.6h-9.5V205h33.4c8.6,0,15.4,2.1,20.1,6.3c4.8,4.2,7.1,10.2,7.1,17.8s-2.6,14-7.9,18.8
			c-5.3,4.9-12.4,7.3-21.4,7.3H680.2z M680.2,213.6v33.2h21.2c6.5,0,11.5-1.5,15-4.5c3.4-3,5.2-7.2,5.2-12.7c0-10.7-6.3-16-19-16
			H680.2z"/>
		<path fill="#FFFFFF" d="M858.5,285.9h-54.1V205h52.3v8.6h-42.8v26.9h40.4v8.5h-40.4v28.3h44.6V285.9z"/>
		<path fill="#FFFFFF" d="M997,285.9h-11.6l-41.6-64.5c-1.1-1.6-1.9-3.3-2.6-5.1h-0.3c0.3,1.7,0.5,5.4,0.5,11.1v58.4h-9.5V205h12.3
			l40.5,63.5c1.7,2.6,2.8,4.4,3.3,5.4h0.2c-0.4-2.3-0.6-6.3-0.6-11.9v-57h9.5V285.9z"/>
		<path fill="#FFFFFF" d="M1071.6,282.6v-11.2c1.3,1.1,2.8,2.1,4.6,3c1.8,0.9,3.7,1.7,5.6,2.3c2,0.6,4,1.1,6,1.4s3.8,0.5,5.5,0.5
			c5.8,0,10.2-1.1,13.1-3.2c2.9-2.2,4.3-5.3,4.3-9.3c0-2.2-0.5-4.1-1.4-5.7c-1-1.6-2.3-3.1-4-4.4c-1.7-1.3-3.7-2.6-6-3.8
			c-2.3-1.2-4.8-2.5-7.5-3.9c-2.8-1.4-5.5-2.9-7.9-4.3c-2.4-1.5-4.6-3.1-6.4-4.9c-1.8-1.8-3.2-3.8-4.3-6c-1-2.2-1.6-4.9-1.6-7.9
			c0-3.7,0.8-6.9,2.4-9.6c1.6-2.7,3.7-5,6.4-6.7c2.6-1.8,5.6-3.1,9-3.9c3.4-0.9,6.8-1.3,10.3-1.3c8,0,13.8,1,17.4,2.9v10.7
			c-4.8-3.3-10.9-5-18.4-5c-2.1,0-4.1,0.2-6.2,0.6c-2.1,0.4-3.9,1.1-5.5,2.1c-1.6,1-2.9,2.2-3.9,3.8c-1,1.5-1.5,3.4-1.5,5.6
			c0,2.1,0.4,3.9,1.2,5.4c0.8,1.5,1.9,2.9,3.4,4.1c1.5,1.2,3.3,2.4,5.5,3.6c2.2,1.2,4.7,2.4,7.5,3.8c2.9,1.4,5.6,2.9,8.2,4.5
			c2.6,1.6,4.9,3.3,6.8,5.2c2,1.9,3.5,4,4.7,6.4c1.1,2.3,1.7,5,1.7,8c0,4-0.8,7.4-2.3,10.1c-1.6,2.8-3.7,5-6.3,6.7
			c-2.7,1.7-5.7,3-9.2,3.8c-3.5,0.8-7.1,1.2-10.9,1.2c-1.3,0-2.9-0.1-4.7-0.3c-1.9-0.2-3.8-0.5-5.8-0.9c-2-0.4-3.8-0.9-5.6-1.5
			C1074,284,1072.6,283.4,1071.6,282.6z"/>
		<path fill="#FFFFFF" d="M1204,255.3v30.6h-9.5V205h33.4c8.6,0,15.4,2.1,20.1,6.3c4.8,4.2,7.1,10.2,7.1,17.8s-2.6,14-7.9,18.8
			c-5.3,4.9-12.4,7.3-21.4,7.3H1204z M1204,213.6v33.2h21.2c6.5,0,11.5-1.5,15-4.5c3.4-3,5.2-7.2,5.2-12.7c0-10.7-6.3-16-19-16H1204
			z"/>
		<path fill="#FFFFFF" d="M1389,285.9h-9.5V249h-41.9v36.9h-9.5V205h9.5v35.5h41.9V205h9.5V285.9z"/>
		<path fill="#FFFFFF" d="M1522,285.9h-54.1V205h52.3v8.6h-42.8v26.9h40.4v8.5h-40.4v28.3h44.6V285.9z"/>
		<path fill="#FFFFFF" d="M1664.6,285.9h-11.3l-13.5-22.7c-1.2-2.1-2.4-3.9-3.6-5.4c-1.2-1.5-2.4-2.7-3.6-3.6
			c-1.2-0.9-2.5-1.6-3.9-2.1c-1.4-0.4-14.2-0.6-16-0.6h-7.8v34.4h-9.5V205h35.4c3.5,0,6.8,0.4,9.8,1.3c3,0.9,5.6,2.2,7.8,4
			c2.2,1.8,3.9,4.1,5.2,6.7c1.2,2.7,1.9,5.8,1.9,9.4c0,2.8-0.4,5.4-1.3,7.8c-0.8,2.4-2.1,4.4-3.6,6.3c-1.6,1.8-3.4,3.4-5.6,4.7
			c-2.2,1.3-4.7,2.3-7.4,3v0.2c1.4,0.6,2.5,1.3,3.5,2.1c1,0.8,1.9,1.7,2.8,2.7c0.9,1.1,1.8,2.2,2.7,3.6c0.9,1.3,1.9,2.9,3,4.7
			L1664.6,285.9z M1604.8,213.6v29.3h24.1c2.4,0,4.6-0.4,6.6-1.1c2-0.7,3.8-1.7,5.2-3.1c1.5-1.3,2.6-3,3.4-4.9
			c0.8-1.9,1.2-4.1,1.2-6.5c0-4.3-1.4-7.7-4.2-10.1c-2.8-2.4-6.9-3.6-12.2-3.6H1604.8z"/>
		<path fill="#FFFFFF" d="M1787.5,285.9h-54.1V205h52.3v8.6h-42.8v26.9h40.4v8.5h-40.4v28.3h44.6V285.9z"/>
	</g>
</g>
</svg>
