<?xml version="1.0" encoding="utf-8"?>
<!-- Generator: Adobe Illustrator 22.0.0, SVG Export Plug-In . SVG Version: 6.00 Build 0)  -->
<svg version="1.1" id="Layer_1" xmlns="http://www.w3.org/2000/svg" xmlns:xlink="http://www.w3.org/1999/xlink" x="0px" y="0px"
	 viewBox="0 0 1819.3 469" enable-background="new 0 0 1819.3 469" xml:space="preserve">
<g>
	<g>
		<path fill="none" stroke="#7BC043" stroke-width="0.1" d="M348.8,430.4c2.7-1.5,5.4-3,8.1-4.6
			C354.2,427.4,351.5,428.9,348.8,430.4z"/>
		<path fill="none" stroke="#4E51A2" stroke-width="0.1" d="M348.8,38.6c2.7,1.5,5.4,3,8.1,4.6C354.2,41.6,351.5,40.1,348.8,38.6z"
			/>
		<radialGradient id="SVGID_1_" cx="396.9002" cy="215.4142" r="8.177476e-02" gradientUnits="userSpaceOnUse">
			<stop  offset="0.5055" style="stop-color:#000000"/>
			<stop  offset="0.6683" style="stop-color:#5D5D5D"/>
			<stop  offset="0.831" style="stop-color:#B4B4B4"/>
			<stop  offset="0.9449" style="stop-color:#EAEAEA"/>
			<stop  offset="1" style="stop-color:#FFFFFF"/>
		</radialGradient>
		<path opacity="0.4" fill="url(#SVGID_1_)" d="M396.9,215.1c0,0.1,0,0.2,0,0.3c0,0,0,0,0,0C396.9,215.3,396.9,215.2,396.9,215.1z"
			/>
		
			<radialGradient id="SVGID_2_" cx="170.884" cy="199.9713" r="421.3419" fx="195.8937" fy="147.1289" gradientUnits="userSpaceOnUse">
			<stop  offset="0" style="stop-color:#FFFFFF"/>
			<stop  offset="5.131997e-02" style="stop-color:#FFFFFF"/>
			<stop  offset="5.573708e-02" style="stop-color:#FFFCF0"/>
			<stop  offset="7.369749e-02" style="stop-color:#FFF1B9"/>
			<stop  offset="9.224211e-02" style="stop-color:#FFE787"/>
			<stop  offset="0.111" style="stop-color:#FFDE5E"/>
			<stop  offset="0.1299" style="stop-color:#FFD73C"/>
			<stop  offset="0.1492" style="stop-color:#FFD221"/>
			<stop  offset="0.1689" style="stop-color:#FFCE0F"/>
			<stop  offset="0.1892" style="stop-color:#FFCC04"/>
			<stop  offset="0.2114" style="stop-color:#FFCB00"/>
			<stop  offset="0.3535" style="stop-color:#FFA700"/>
			<stop  offset="0.5311" style="stop-color:#FF7D00"/>
			<stop  offset="0.5757" style="stop-color:#ED7000"/>
			<stop  offset="0.6658" style="stop-color:#BD4D00"/>
			<stop  offset="0.7762" style="stop-color:#7A1D00"/>
			<stop  offset="1" style="stop-color:#0D0000"/>
		</radialGradient>
		<path fill="url(#SVGID_2_)" d="M446,234.5c-4.5-29.4-15.8-56.5-32.2-79.8c-16.8-23.9-38.9-43.7-64.7-57.8
			c49.6,31.5,82.4,86.9,82.4,150c0,98.1-79.5,177.6-177.6,177.6c-7.9,0-15.7-0.5-23.3-1.5c-82.3-10.8-146.9-78-153.7-161.5
			c-2.7-8.7-4.8-17.7-6.2-26.9c-1.4-9.5-2.2-19.1-2.2-29c0-28.5,6.3-55.6,17.6-79.8C98.6,99,117,75.7,139.6,57.5
			c32.5-26.1,73.8-41.8,118.8-41.8c32.7,0,63.5,8.3,90.4,22.9C317,21.2,280.5,11.2,241.6,11.2c-120,0-217.9,94.7-223,213.5
			c-0.1,3.2-0.2,6.5-0.2,9.8c0,3.3,0.1,6.5,0.2,9.8c5.1,118.8,103,213.5,223,213.5c38.8,0,75.3-9.9,107.1-27.4
			c2.7-1.5,5.4-3,8.1-4.6c1.7-1,3.3-2.1,4.9-3.1c52-33.9,86.4-92.5,86.4-159.1C448.2,253.6,447.4,244,446,234.5z"/>
		
			<radialGradient id="SVGID_3_" cx="279.931" cy="162.2266" r="347.9407" fx="300.5839" fy="118.5898" gradientUnits="userSpaceOnUse">
			<stop  offset="0" style="stop-color:#FFFFFF"/>
			<stop  offset="2.841920e-02" style="stop-color:#FFFFFF"/>
			<stop  offset="3.346835e-02" style="stop-color:#FFFCF0"/>
			<stop  offset="5.399865e-02" style="stop-color:#FFF1B9"/>
			<stop  offset="7.519677e-02" style="stop-color:#FFE787"/>
			<stop  offset="9.660143e-02" style="stop-color:#FFDE5E"/>
			<stop  offset="0.1183" style="stop-color:#FFD73C"/>
			<stop  offset="0.1403" style="stop-color:#FFD221"/>
			<stop  offset="0.1628" style="stop-color:#FFCE0F"/>
			<stop  offset="0.1861" style="stop-color:#FFCC04"/>
			<stop  offset="0.2114" style="stop-color:#FFCB00"/>
			<stop  offset="0.3535" style="stop-color:#FFA700"/>
			<stop  offset="0.5311" style="stop-color:#FF7D00"/>
			<stop  offset="0.5757" style="stop-color:#ED7000"/>
			<stop  offset="0.6658" style="stop-color:#BD4D00"/>
			<stop  offset="0.7762" style="stop-color:#7A1D00"/>
			<stop  offset="1" style="stop-color:#0D0000"/>
		</radialGradient>
		<path fill="url(#SVGID_3_)" d="M356.9,43.2c-2.7-1.6-5.4-3.2-8.1-4.6c-26.9-14.6-57.7-22.9-90.4-22.9c-45,0-86.3,15.7-118.8,41.8
			C117,75.7,98.6,99,86.2,125.7c-11.3,24.3-17.6,51.3-17.6,79.8c0,9.9,0.8,19.5,2.2,29c1.4,9.2,3.5,18.2,6.2,27
			c-0.4-4.8-0.6-9.7-0.6-14.6c0-98.1,79.5-177.6,177.6-177.6c35,0,67.6,10.1,95.1,27.6c25.8,14.1,47.9,33.9,64.7,57.8
			c16.4,23.3,27.6,50.5,32.2,79.8c1.4,9.4,2.2,19.1,2.2,29c0,68.8-36.6,129-91.3,162.3c64.8-39.1,108.1-110.1,108.1-191.3
			C464.9,153.4,421.6,82.3,356.9,43.2z"/>
	</g>
	<g>
		<linearGradient id="SVGID_4_" gradientUnits="userSpaceOnUse" x1="558.7875" y1="357.5198" x2="558.7875" y2="149.5609">
			<stop  offset="2.544529e-02" style="stop-color:#BCBEC0"/>
			<stop  offset="0.9443" style="stop-color:#F0F1F1"/>
			<stop  offset="0.9594" style="stop-color:#F1F2F2"/>
		</linearGradient>
		<path fill="url(#SVGID_4_)" d="M558.4,287.3c-11.5,0-20.7-3.8-27.6-11.3c-6.9-7.6-10.4-17.4-10.4-29.5c0-13,3.5-23.4,10.5-31.1
			c7-7.7,16.6-11.6,28.7-11.6c11.2,0,20.2,3.8,27,11.3c6.8,7.5,10.2,17.4,10.2,29.5c0,13.2-3.5,23.6-10.5,31.3
			C579.5,283.4,570.2,287.3,558.4,287.3z M559.1,212.2c-8.5,0-15.4,3.1-20.7,9.2c-5.3,6.1-8,14.2-8,24.1c0,10,2.6,18,7.8,24.1
			c5.2,6.1,11.9,9.1,20.2,9.1c8.9,0,15.9-2.9,21-8.7c5.1-5.8,7.7-13.9,7.7-24.3c0-10.7-2.5-18.9-7.4-24.8
			C574.7,215.2,567.8,212.2,559.1,212.2z"/>
		<linearGradient id="SVGID_5_" gradientUnits="userSpaceOnUse" x1="701.0391" y1="353.8899" x2="701.0391" y2="152.6678">
			<stop  offset="2.544529e-02" style="stop-color:#BCBEC0"/>
			<stop  offset="0.9443" style="stop-color:#F0F1F1"/>
			<stop  offset="0.9594" style="stop-color:#F1F2F2"/>
		</linearGradient>
		<path fill="url(#SVGID_5_)" d="M680.2,255.3v30.6h-9.5V205h33.4c8.6,0,15.4,2.1,20.1,6.3c4.8,4.2,7.1,10.2,7.1,17.8
			s-2.6,14-7.9,18.8c-5.3,4.9-12.4,7.3-21.4,7.3H680.2z M680.2,213.6v33.2h21.2c6.5,0,11.5-1.5,15-4.5c3.4-3,5.2-7.2,5.2-12.7
			c0-10.7-6.3-16-19-16H680.2z"/>
		<linearGradient id="SVGID_6_" gradientUnits="userSpaceOnUse" x1="831.4191" y1="353.8899" x2="831.4191" y2="152.6678">
			<stop  offset="2.544529e-02" style="stop-color:#BCBEC0"/>
			<stop  offset="0.9443" style="stop-color:#F0F1F1"/>
			<stop  offset="0.9594" style="stop-color:#F1F2F2"/>
		</linearGradient>
		<path fill="url(#SVGID_6_)" d="M858.5,285.9h-54.1V205h52.3v8.6h-42.8v26.9h40.4v8.5h-40.4v28.3h44.6V285.9z"/>
		<linearGradient id="SVGID_7_" gradientUnits="userSpaceOnUse" x1="964.3929" y1="353.8899" x2="964.3929" y2="152.6678">
			<stop  offset="2.544529e-02" style="stop-color:#BCBEC0"/>
			<stop  offset="0.9443" style="stop-color:#F0F1F1"/>
			<stop  offset="0.9594" style="stop-color:#F1F2F2"/>
		</linearGradient>
		<path fill="url(#SVGID_7_)" d="M997,285.9h-11.6l-41.6-64.5c-1.1-1.6-1.9-3.3-2.6-5.1h-0.3c0.3,1.7,0.5,5.4,0.5,11.1v58.4h-9.5
			V205h12.3l40.5,63.5c1.7,2.6,2.8,4.4,3.3,5.4h0.2c-0.4-2.3-0.6-6.3-0.6-11.9v-57h9.5V285.9z"/>
		<linearGradient id="SVGID_8_" gradientUnits="userSpaceOnUse" x1="1096.088" y1="357.5198" x2="1096.088" y2="149.5609">
			<stop  offset="2.544529e-02" style="stop-color:#BCBEC0"/>
			<stop  offset="0.9443" style="stop-color:#F0F1F1"/>
			<stop  offset="0.9594" style="stop-color:#F1F2F2"/>
		</linearGradient>
		<path fill="url(#SVGID_8_)" d="M1071.6,282.6v-11.2c1.3,1.1,2.8,2.1,4.6,3c1.8,0.9,3.7,1.7,5.6,2.3c2,0.6,4,1.1,6,1.4
			s3.8,0.5,5.5,0.5c5.8,0,10.2-1.1,13.1-3.2c2.9-2.2,4.3-5.3,4.3-9.3c0-2.2-0.5-4.1-1.4-5.7c-1-1.6-2.3-3.1-4-4.4
			c-1.7-1.3-3.7-2.6-6-3.8c-2.3-1.2-4.8-2.5-7.5-3.9c-2.8-1.4-5.5-2.9-7.9-4.3c-2.4-1.5-4.6-3.1-6.4-4.9c-1.8-1.8-3.2-3.8-4.3-6
			c-1-2.2-1.6-4.9-1.6-7.9c0-3.7,0.8-6.9,2.4-9.6c1.6-2.7,3.7-5,6.4-6.7c2.6-1.8,5.6-3.1,9-3.9c3.4-0.9,6.8-1.3,10.3-1.3
			c8,0,13.8,1,17.4,2.9v10.7c-4.8-3.3-10.9-5-18.4-5c-2.1,0-4.1,0.2-6.2,0.6c-2.1,0.4-3.9,1.1-5.5,2.1c-1.6,1-2.9,2.2-3.9,3.8
			c-1,1.5-1.5,3.4-1.5,5.6c0,2.1,0.4,3.9,1.2,5.4c0.8,1.5,1.9,2.9,3.4,4.1c1.5,1.2,3.3,2.4,5.5,3.6c2.2,1.2,4.7,2.4,7.5,3.8
			c2.9,1.4,5.6,2.9,8.2,4.5c2.6,1.6,4.9,3.3,6.8,5.2c2,1.9,3.5,4,4.7,6.4c1.1,2.3,1.7,5,1.7,8c0,4-0.8,7.4-2.3,10.1
			c-1.6,2.8-3.7,5-6.3,6.7c-2.7,1.7-5.7,3-9.2,3.8c-3.5,0.8-7.1,1.2-10.9,1.2c-1.3,0-2.9-0.1-4.7-0.3c-1.9-0.2-3.8-0.5-5.8-0.9
			c-2-0.4-3.8-0.9-5.6-1.5C1074,284,1072.6,283.4,1071.6,282.6z"/>
		<linearGradient id="SVGID_9_" gradientUnits="userSpaceOnUse" x1="1224.8323" y1="353.8899" x2="1224.8323" y2="152.6678">
			<stop  offset="2.544529e-02" style="stop-color:#BCBEC0"/>
			<stop  offset="0.9443" style="stop-color:#F0F1F1"/>
			<stop  offset="0.9594" style="stop-color:#F1F2F2"/>
		</linearGradient>
		<path fill="url(#SVGID_9_)" d="M1204,255.3v30.6h-9.5V205h33.4c8.6,0,15.4,2.1,20.1,6.3c4.8,4.2,7.1,10.2,7.1,17.8
			s-2.6,14-7.9,18.8c-5.3,4.9-12.4,7.3-21.4,7.3H1204z M1204,213.6v33.2h21.2c6.5,0,11.5-1.5,15-4.5c3.4-3,5.2-7.2,5.2-12.7
			c0-10.7-6.3-16-19-16H1204z"/>
		<linearGradient id="SVGID_10_" gradientUnits="userSpaceOnUse" x1="1358.567" y1="353.8899" x2="1358.567" y2="152.6678">
			<stop  offset="2.544529e-02" style="stop-color:#BCBEC0"/>
			<stop  offset="0.9443" style="stop-color:#F0F1F1"/>
			<stop  offset="0.9594" style="stop-color:#F1F2F2"/>
		</linearGradient>
		<path fill="url(#SVGID_10_)" d="M1389,285.9h-9.5V249h-41.9v36.9h-9.5V205h9.5v35.5h41.9V205h9.5V285.9z"/>
		<linearGradient id="SVGID_11_" gradientUnits="userSpaceOnUse" x1="1494.9806" y1="353.8899" x2="1494.9806" y2="152.6678">
			<stop  offset="2.544529e-02" style="stop-color:#BCBEC0"/>
			<stop  offset="0.9443" style="stop-color:#F0F1F1"/>
			<stop  offset="0.9594" style="stop-color:#F1F2F2"/>
		</linearGradient>
		<path fill="url(#SVGID_11_)" d="M1522,285.9h-54.1V205h52.3v8.6h-42.8v26.9h40.4v8.5h-40.4v28.3h44.6V285.9z"/>
		<linearGradient id="SVGID_12_" gradientUnits="userSpaceOnUse" x1="1629.9574" y1="353.8899" x2="1629.9574" y2="152.6678">
			<stop  offset="2.544529e-02" style="stop-color:#BCBEC0"/>
			<stop  offset="0.9443" style="stop-color:#F0F1F1"/>
			<stop  offset="0.9594" style="stop-color:#F1F2F2"/>
		</linearGradient>
		<path fill="url(#SVGID_12_)" d="M1664.6,285.9h-11.3l-13.5-22.7c-1.2-2.1-2.4-3.9-3.6-5.4c-1.2-1.5-2.4-2.7-3.6-3.6
			c-1.2-0.9-2.5-1.6-3.9-2.1c-1.4-0.4-14.2-0.6-16-0.6h-7.8v34.4h-9.5V205h35.4c3.5,0,6.8,0.4,9.8,1.3c3,0.9,5.6,2.2,7.8,4
			c2.2,1.8,3.9,4.1,5.2,6.7c1.2,2.7,1.9,5.8,1.9,9.4c0,2.8-0.4,5.4-1.3,7.8c-0.8,2.4-2.1,4.4-3.6,6.3c-1.6,1.8-3.4,3.4-5.6,4.7
			c-2.2,1.3-4.7,2.3-7.4,3v0.2c1.4,0.6,2.5,1.3,3.5,2.1c1,0.8,1.9,1.7,2.8,2.7c0.9,1.1,1.8,2.2,2.7,3.6c0.9,1.3,1.9,2.9,3,4.7
			L1664.6,285.9z M1604.8,213.6v29.3h24.1c2.4,0,4.6-0.4,6.6-1.1c2-0.7,3.8-1.7,5.2-3.1c1.5-1.3,2.6-3,3.4-4.9
			c0.8-1.9,1.2-4.1,1.2-6.5c0-4.3-1.4-7.7-4.2-10.1c-2.8-2.4-6.9-3.6-12.2-3.6H1604.8z"/>
		<linearGradient id="SVGID_13_" gradientUnits="userSpaceOnUse" x1="1760.4783" y1="353.8899" x2="1760.4783" y2="152.6678">
			<stop  offset="2.544529e-02" style="stop-color:#BCBEC0"/>
			<stop  offset="0.9443" style="stop-color:#F0F1F1"/>
			<stop  offset="0.9594" style="stop-color:#F1F2F2"/>
		</linearGradient>
		<path fill="url(#SVGID_13_)" d="M1787.5,285.9h-54.1V205h52.3v8.6h-42.8v26.9h40.4v8.5h-40.4v28.3h44.6V285.9z"/>
	</g>
</g>
</svg>
