<?xml version="1.0" encoding="utf-8"?>
<!-- Generator: Adobe Illustrator 22.0.0, SVG Export Plug-In . SVG Version: 6.00 Build 0)  -->
<svg version="1.1" xmlns="http://www.w3.org/2000/svg" xmlns:xlink="http://www.w3.org/1999/xlink" x="0px" y="0px"
	 viewBox="0 0 144 144" enable-background="new 0 0 144 144" xml:space="preserve">
<g id="Layer_2" display="none">
	<rect display="inline" stroke="#000000" stroke-width="4" stroke-miterlimit="10" width="144" height="144"/>
</g>
<g id="Layer_1">
	<g>
		<path fill="#FFFFFF" d="M136.6,84.7c0-0.5,0.1-1.1,0.1-1.6c0-0.6,0-1.3,0-1.9c0-3-0.2-6.1-0.7-9.1c-1.1-7.2-3.6-14.3-7.3-20.6
			c0,0,0,0,0-0.1c0,0,0-0.1-0.1-0.1c-0.8-1.4-1.7-2.8-2.7-4.2c0-0.1-0.1-0.1-0.1-0.2c-0.3-0.4-0.6-0.8-0.9-1.2
			c-0.1-0.2-0.3-0.3-0.4-0.5c-0.2-0.3-0.4-0.6-0.7-0.9c-0.2-0.2-0.3-0.4-0.5-0.6c-0.2-0.3-0.4-0.5-0.6-0.8c-0.2-0.2-0.3-0.4-0.5-0.6
			c-0.2-0.2-0.4-0.5-0.6-0.7c-0.2-0.2-0.4-0.4-0.5-0.6c-0.2-0.2-0.4-0.5-0.6-0.7c-0.2-0.2-0.4-0.4-0.6-0.6c-0.2-0.2-0.4-0.4-0.7-0.7
			c-0.2-0.2-0.4-0.4-0.6-0.6c-0.2-0.2-0.4-0.4-0.7-0.6c-0.2-0.2-0.4-0.4-0.6-0.6c-0.2-0.2-0.4-0.4-0.7-0.6c-0.1-0.1-0.1-0.1-0.2-0.1
			C126.6,47,132.4,61,132.4,75.9c0,31.2-25.3,56.5-56.5,56.5c-2.5,0-5-0.2-7.4-0.5c-12.7-1.7-24.6-7.7-33.5-17
			c-8.9-9.3-14.4-21.5-15.4-34.3c-0.9-2.8-1.5-5.7-2-8.5c-0.5-3-0.7-6.1-0.7-9.2c0-8.8,1.9-17.4,5.6-25.4c3.9-8.4,9.8-15.9,17-21.7
			C50.3,7.1,63.4,2.5,77.3,2.5c0.6,0,1.3,0,1.9,0c0.3,0,0.6,0,0.9,0c0.3,0,0.6,0,1,0C78,2.2,75,2,72,2C34.4,2,3.7,31.4,2.1,68.9
			C2.1,70.2,2,71.1,2,72c0,0.9,0,1.8,0.1,3.1C3.7,112.6,34.4,142,72,142c11.7,0,23.3-3,33.6-8.6c0.9-0.5,1.7-1,2.5-1.5
			c0.5-0.3,1-0.6,1.6-1c15.9-10.3,25.7-27.3,26.9-46C136.6,84.8,136.6,84.8,136.6,84.7z"/>
		<path fill="#FFFFFF" d="M108.1,12.1c-0.8-0.5-1.7-1-2.5-1.5c-1.1-0.6-2.2-1.1-3.3-1.7C96.8,6.4,91,4.7,85,4
			c-1.9-0.3-3.9-0.4-5.9-0.5c-0.6,0-1.2,0-1.9,0c-11.5,0-22.5,3.2-32,9.4c-0.4,0.2-0.7,0.5-1.1,0.7c-0.7,0.5-1.4,1-2.1,1.5
			c-0.7,0.5-1.4,1-2,1.6C33,22.3,27.2,29.6,23.4,37.9c-3.7,7.9-5.5,16.3-5.5,25c0,3,0.2,6.1,0.7,9.1c0.1,0.4,0.1,0.7,0.2,1.1
			c0.2,1.1,0.4,2.2,0.7,3.2c0-0.1,0-0.2,0-0.3c0-31.2,25.3-56.5,56.5-56.5c10.8,0,21.2,3,30.3,8.8c0.4,0.2,0.8,0.4,1.2,0.7
			c0.1,0.1,0.2,0.1,0.3,0.2c0.4,0.2,0.7,0.4,1.1,0.7c0.1,0.1,0.3,0.2,0.4,0.2c0.3,0.2,0.6,0.4,0.9,0.6c0.2,0.1,0.4,0.2,0.5,0.3
			c0.3,0.2,0.5,0.4,0.8,0.6c0.2,0.1,0.4,0.3,0.6,0.4c0.2,0.2,0.5,0.3,0.7,0.5c0.2,0.2,0.5,0.3,0.7,0.5c0.2,0.1,0.4,0.3,0.6,0.5
			c0.3,0.2,0.5,0.4,0.8,0.6c0.2,0.1,0.3,0.3,0.5,0.4c0.3,0.2,0.6,0.5,0.8,0.7c0.1,0.1,0.3,0.2,0.4,0.3c0.3,0.3,0.6,0.5,0.9,0.8
			c0.1,0.1,0.2,0.1,0.2,0.2c0.4,0.3,0.7,0.6,1,1c0.1,0,0.1,0.1,0.2,0.1c2.9,2.7,5.5,5.8,7.8,9c5,7.1,8.4,15.2,9.9,23.7
			c0.1,0.6,0.2,1.1,0.3,1.7c0.5,3,0.7,6.1,0.7,9.2c0,0.7,0,1.3,0,2c0,0.1,0,0.2,0,0.2c0,0.6,0,1.2-0.1,1.7c0,0,0,0.1,0,0.1
			c-0.7,10.8-4.3,21.1-10.3,29.9C136.7,103,142,88,142,72C142,47.3,129.3,24.9,108.1,12.1z"/>
	</g>
</g>
</svg>
