<?xml version="1.0" encoding="utf-8"?>
<!-- Generator: Adobe Illustrator 22.0.0, SVG Export Plug-In . SVG Version: 6.00 Build 0)  -->
<svg version="1.1" id="Layer_1" xmlns="http://www.w3.org/2000/svg" xmlns:xlink="http://www.w3.org/1999/xlink" x="0px" y="0px"
	 viewBox="0 0 1294.5 106" enable-background="new 0 0 1294.5 106" xml:space="preserve">
<g>
	<path d="M51.7,94.8C40.2,94.8,31,91,24.1,83.5C17.2,75.9,13.8,66.1,13.8,54c0-13,3.5-23.4,10.5-31.1c7-7.7,16.6-11.6,28.7-11.6
		c11.2,0,20.2,3.8,27,11.3C86.8,30,90.3,39.8,90.3,52c0,13.2-3.5,23.6-10.5,31.3C72.8,91,63.4,94.8,51.7,94.8z M52.3,19.8
		c-8.5,0-15.4,3.1-20.7,9.2c-5.3,6.1-8,14.2-8,24.1c0,10,2.6,18,7.8,24.1c5.2,6.1,11.9,9.1,20.2,9.1c8.9,0,15.9-2.9,21-8.7
		c5.1-5.8,7.7-13.9,7.7-24.3c0-10.7-2.5-18.9-7.4-24.8C67.9,22.7,61.1,19.8,52.3,19.8z"/>
	<path d="M173.4,62.9v30.6h-9.5V12.6h33.4c8.6,0,15.4,2.1,20.1,6.3c4.8,4.2,7.1,10.2,7.1,17.8s-2.6,14-7.9,18.8
		c-5.3,4.9-12.4,7.3-21.4,7.3H173.4z M173.4,21.1v33.2h21.2c6.5,0,11.5-1.5,15-4.5c3.4-3,5.2-7.2,5.2-12.7c0-10.7-6.3-16-19-16
		H173.4z"/>
	<path d="M351.7,93.4h-54.1V12.6h52.3v8.6h-42.8V48h40.4v8.5h-40.4v28.3h44.6V93.4z"/>
	<path d="M490.2,93.4h-11.6L437,29c-1.1-1.6-1.9-3.3-2.6-5.1H434c0.3,1.7,0.5,5.4,0.5,11.1v58.4H425V12.6h12.3L477.8,76
		c1.7,2.6,2.8,4.4,3.3,5.4h0.2c-0.4-2.3-0.6-6.3-0.6-11.9v-57h9.5V93.4z"/>
	<path d="M564.8,90.2V79c1.3,1.1,2.8,2.1,4.6,3c1.8,0.9,3.7,1.7,5.6,2.3c2,0.6,4,1.1,6,1.4c2,0.3,3.8,0.5,5.5,0.5
		c5.8,0,10.2-1.1,13.1-3.2c2.9-2.2,4.3-5.3,4.3-9.3c0-2.2-0.5-4.1-1.4-5.7c-1-1.6-2.3-3.1-4-4.4c-1.7-1.3-3.7-2.6-6-3.8
		c-2.3-1.2-4.8-2.5-7.5-3.9c-2.8-1.4-5.5-2.9-7.9-4.3c-2.4-1.5-4.6-3.1-6.4-4.9c-1.8-1.8-3.2-3.8-4.3-6c-1-2.2-1.6-4.9-1.6-7.9
		c0-3.7,0.8-6.9,2.4-9.6c1.6-2.7,3.7-5,6.4-6.7c2.6-1.8,5.6-3.1,9-3.9s6.8-1.3,10.3-1.3c8,0,13.8,1,17.4,2.9v10.7
		c-4.8-3.3-10.9-5-18.4-5c-2.1,0-4.1,0.2-6.2,0.6c-2.1,0.4-3.9,1.1-5.5,2.1c-1.6,1-2.9,2.2-3.9,3.8c-1,1.5-1.5,3.4-1.5,5.6
		c0,2.1,0.4,3.9,1.2,5.4c0.8,1.5,1.9,2.9,3.4,4.1c1.5,1.2,3.3,2.4,5.5,3.6c2.2,1.2,4.7,2.4,7.5,3.8c2.9,1.4,5.6,2.9,8.2,4.5
		c2.6,1.6,4.9,3.3,6.8,5.2c2,1.9,3.5,4,4.7,6.4c1.1,2.3,1.7,5,1.7,8c0,4-0.8,7.4-2.3,10.1c-1.6,2.8-3.7,5-6.3,6.7
		c-2.7,1.7-5.7,3-9.2,3.8c-3.5,0.8-7.1,1.2-10.9,1.2c-1.3,0-2.9-0.1-4.7-0.3c-1.9-0.2-3.8-0.5-5.8-0.9c-2-0.4-3.8-0.9-5.6-1.5
		C567.3,91.5,565.9,90.9,564.8,90.2z"/>
	<path d="M697.2,62.9v30.6h-9.5V12.6h33.4c8.6,0,15.4,2.1,20.1,6.3c4.8,4.2,7.1,10.2,7.1,17.8s-2.6,14-7.9,18.8
		c-5.3,4.9-12.4,7.3-21.4,7.3H697.2z M697.2,21.1v33.2h21.2c6.5,0,11.5-1.5,15-4.5c3.4-3,5.2-7.2,5.2-12.7c0-10.7-6.3-16-19-16
		H697.2z"/>
	<path d="M882.2,93.4h-9.5V56.6h-41.9v36.9h-9.5V12.6h9.5V48h41.9V12.6h9.5V93.4z"/>
	<path d="M1015.2,93.4h-54.1V12.6h52.3v8.6h-42.8V48h40.4v8.5h-40.4v28.3h44.6V93.4z"/>
	<path d="M1157.8,93.4h-11.3L1133,70.8c-1.2-2.1-2.4-3.9-3.6-5.4c-1.2-1.5-2.4-2.7-3.6-3.6c-1.2-0.9-2.5-1.6-3.9-2.1
		c-1.4-0.4-14.2-0.6-16-0.6h-7.8v34.4h-9.5V12.6h35.4c3.5,0,6.8,0.4,9.8,1.3c3,0.9,5.6,2.2,7.8,4c2.2,1.8,3.9,4.1,5.2,6.7
		c1.2,2.7,1.9,5.8,1.9,9.4c0,2.8-0.4,5.4-1.3,7.8c-0.8,2.4-2.1,4.4-3.6,6.3c-1.6,1.8-3.4,3.4-5.6,4.7c-2.2,1.3-4.7,2.3-7.4,3v0.2
		c1.4,0.6,2.5,1.3,3.5,2.1c1,0.8,1.9,1.7,2.8,2.7c0.9,1.1,1.8,2.2,2.7,3.6c0.9,1.3,1.9,2.9,3,4.7L1157.8,93.4z M1098,21.1v29.3h24.1
		c2.4,0,4.6-0.4,6.6-1.1c2-0.7,3.8-1.7,5.2-3.1c1.5-1.3,2.6-3,3.4-4.9c0.8-1.9,1.2-4.1,1.2-6.5c0-4.3-1.4-7.7-4.2-10.1
		c-2.8-2.4-6.9-3.6-12.2-3.6H1098z"/>
	<path d="M1280.7,93.4h-54.1V12.6h52.3v8.6h-42.8V48h40.4v8.5h-40.4v28.3h44.6V93.4z"/>
</g>
</svg>
