<?xml version="1.0" encoding="utf-8"?>
<!-- Generator: Adobe Illustrator 22.0.0, SVG Export Plug-In . SVG Version: 6.00 Build 0)  -->
<svg version="1.1" id="Layer_1" xmlns="http://www.w3.org/2000/svg" xmlns:xlink="http://www.w3.org/1999/xlink" x="0px" y="0px"
	 viewBox="0 0 144 144" enable-background="new 0 0 144 144" xml:space="preserve">
<g>
	<path fill="none" stroke="#7BC043" stroke-width="0.1" d="M105.6,133.4c0.9-0.5,1.7-0.9,2.5-1.5
		C107.3,132.4,106.4,132.9,105.6,133.4z"/>
	<path fill="none" stroke="#4E51A2" stroke-width="0.1" d="M105.6,10.6c0.9,0.5,1.7,1,2.5,1.5C107.3,11.6,106.4,11.1,105.6,10.6z"/>
	<radialGradient id="SVGID_1_" cx="120.652" cy="66.0193" r="2.562469e-02" gradientUnits="userSpaceOnUse">
		<stop  offset="0.5055" style="stop-color:#000000"/>
		<stop  offset="0.6683" style="stop-color:#5D5D5D"/>
		<stop  offset="0.831" style="stop-color:#B4B4B4"/>
		<stop  offset="0.9449" style="stop-color:#EAEAEA"/>
		<stop  offset="1" style="stop-color:#FFFFFF"/>
	</radialGradient>
	<path opacity="0.4" fill="url(#SVGID_1_)" d="M120.6,65.9c0,0,0,0.1,0,0.1c0,0,0,0,0,0C120.7,66,120.6,65.9,120.6,65.9z"/>
	<radialGradient id="SVGID_2_" cx="49.8283" cy="61.1802" r="132.0304" fx="57.6652" fy="44.6217" gradientUnits="userSpaceOnUse">
		<stop  offset="0" style="stop-color:#FFFFFF"/>
		<stop  offset="5.131997e-02" style="stop-color:#FFFFFF"/>
		<stop  offset="5.573708e-02" style="stop-color:#FFFCF0"/>
		<stop  offset="7.369749e-02" style="stop-color:#FFF1B9"/>
		<stop  offset="9.224211e-02" style="stop-color:#FFE787"/>
		<stop  offset="0.111" style="stop-color:#FFDE5E"/>
		<stop  offset="0.1299" style="stop-color:#FFD73C"/>
		<stop  offset="0.1492" style="stop-color:#FFD221"/>
		<stop  offset="0.1689" style="stop-color:#FFCE0F"/>
		<stop  offset="0.1892" style="stop-color:#FFCC04"/>
		<stop  offset="0.2114" style="stop-color:#FFCB00"/>
		<stop  offset="0.3535" style="stop-color:#FFA700"/>
		<stop  offset="0.5311" style="stop-color:#FF7D00"/>
		<stop  offset="0.5757" style="stop-color:#ED7000"/>
		<stop  offset="0.6658" style="stop-color:#BD4D00"/>
		<stop  offset="0.7762" style="stop-color:#7A1D00"/>
		<stop  offset="1" style="stop-color:#0D0000"/>
	</radialGradient>
	<path fill="url(#SVGID_2_)" d="M136,72c-1.4-9.2-4.9-17.7-10.1-25c-5.3-7.5-12.2-13.7-20.3-18.1c15.5,9.9,25.8,27.2,25.8,47
		c0,30.7-24.9,55.6-55.6,55.6c-2.5,0-4.9-0.2-7.3-0.5c-25.8-3.4-46-24.4-48.2-50.6c-0.8-2.7-1.5-5.5-1.9-8.4c-0.5-3-0.7-6-0.7-9.1
		c0-8.9,2-17.4,5.5-25c3.9-8.3,9.6-15.6,16.7-21.3C50.2,8.4,63.2,3.4,77.2,3.4c10.3,0,19.9,2.6,28.3,7.2C95.6,5.1,84.2,2,72,2
		C34.4,2,3.7,31.7,2.1,68.9C2.1,70,2,71,2,72c0,1,0,2,0.1,3.1C3.7,112.3,34.4,142,72,142c12.2,0,23.6-3.1,33.6-8.6
		c0.9-0.5,1.7-1,2.5-1.5c0.5-0.3,1-0.6,1.6-1c16.3-10.6,27.1-29,27.1-49.9C136.7,78,136.5,75,136,72z"/>
	<radialGradient id="SVGID_3_" cx="83.9989" cy="49.3526" r="109.0296" fx="90.4706" fy="35.6787" gradientUnits="userSpaceOnUse">
		<stop  offset="0" style="stop-color:#FFFFFF"/>
		<stop  offset="2.841920e-02" style="stop-color:#FFFFFF"/>
		<stop  offset="3.346835e-02" style="stop-color:#FFFCF0"/>
		<stop  offset="5.399865e-02" style="stop-color:#FFF1B9"/>
		<stop  offset="7.519677e-02" style="stop-color:#FFE787"/>
		<stop  offset="9.660143e-02" style="stop-color:#FFDE5E"/>
		<stop  offset="0.1183" style="stop-color:#FFD73C"/>
		<stop  offset="0.1403" style="stop-color:#FFD221"/>
		<stop  offset="0.1628" style="stop-color:#FFCE0F"/>
		<stop  offset="0.1861" style="stop-color:#FFCC04"/>
		<stop  offset="0.2114" style="stop-color:#FFCB00"/>
		<stop  offset="0.3535" style="stop-color:#FFA700"/>
		<stop  offset="0.5311" style="stop-color:#FF7D00"/>
		<stop  offset="0.5757" style="stop-color:#ED7000"/>
		<stop  offset="0.6658" style="stop-color:#BD4D00"/>
		<stop  offset="0.7762" style="stop-color:#7A1D00"/>
		<stop  offset="1" style="stop-color:#0D0000"/>
	</radialGradient>
	<path fill="url(#SVGID_3_)" d="M108.1,12.1c-0.8-0.5-1.7-1-2.5-1.5C97.2,6,87.5,3.4,77.2,3.4c-14.1,0-27,4.9-37.2,13.1
		c-7.1,5.7-12.8,13-16.7,21.3c-3.5,7.6-5.5,16.1-5.5,25c0,3.1,0.2,6.1,0.7,9.1c0.4,2.9,1.1,5.7,1.9,8.5c-0.1-1.5-0.2-3-0.2-4.6
		c0-30.7,24.9-55.6,55.6-55.6c11,0,21.2,3.2,29.8,8.7c8.1,4.4,15,10.6,20.3,18.1c5.1,7.3,8.7,15.8,10.1,25c0.5,3,0.7,6,0.7,9.1
		c0,21.5-11.5,40.4-28.6,50.8C128.4,119.7,142,97.4,142,72C142,46.6,128.4,24.3,108.1,12.1z"/>
</g>
</svg>
