<?xml version="1.0" encoding="utf-8"?>
<!-- Generator: Adobe Illustrator 22.0.0, SVG Export Plug-In . SVG Version: 6.00 Build 0)  -->
<svg version="1.1" id="Layer_1" xmlns="http://www.w3.org/2000/svg" xmlns:xlink="http://www.w3.org/1999/xlink" x="0px" y="0px"
	 viewBox="0 0 1294 106" enable-background="new 0 0 1294 106" xml:space="preserve">
<g>
	<linearGradient id="SVGID_1_" gradientUnits="userSpaceOnUse" x1="51.7525" y1="165.0515" x2="51.7525" y2="-42.9074">
		<stop  offset="2.544529e-02" style="stop-color:#BCBEC0"/>
		<stop  offset="0.9443" style="stop-color:#F0F1F1"/>
		<stop  offset="0.9594" style="stop-color:#F1F2F2"/>
	</linearGradient>
	<path fill="url(#SVGID_1_)" d="M51.4,94.8c-11.5,0-20.7-3.8-27.6-11.3C17,75.9,13.5,66.1,13.5,54c0-13,3.5-23.4,10.5-31.1
		c7-7.7,16.6-11.6,28.7-11.6c11.2,0,20.2,3.8,27,11.3S90,39.8,90,52c0,13.2-3.5,23.6-10.5,31.3C72.5,91,63.1,94.8,51.4,94.8z
		 M52.1,19.8c-8.5,0-15.4,3.1-20.7,9.2c-5.3,6.1-8,14.2-8,24.1c0,10,2.6,18,7.8,24.1c5.2,6.1,11.9,9.1,20.2,9.1
		c8.9,0,15.9-2.9,21-8.7c5.1-5.8,7.7-13.9,7.7-24.3c0-10.7-2.5-18.9-7.4-24.8C67.7,22.7,60.8,19.8,52.1,19.8z"/>
	<linearGradient id="SVGID_2_" gradientUnits="userSpaceOnUse" x1="194.004" y1="161.4217" x2="194.004" y2="-39.8005">
		<stop  offset="2.544529e-02" style="stop-color:#BCBEC0"/>
		<stop  offset="0.9443" style="stop-color:#F0F1F1"/>
		<stop  offset="0.9594" style="stop-color:#F1F2F2"/>
	</linearGradient>
	<path fill="url(#SVGID_2_)" d="M173.1,62.9v30.6h-9.5V12.6h33.4c8.6,0,15.4,2.1,20.1,6.3c4.8,4.2,7.1,10.2,7.1,17.8
		s-2.6,14-7.9,18.8c-5.3,4.9-12.4,7.3-21.4,7.3H173.1z M173.1,21.1v33.2h21.2c6.5,0,11.5-1.5,15-4.5c3.4-3,5.2-7.2,5.2-12.7
		c0-10.7-6.3-16-19-16H173.1z"/>
	<linearGradient id="SVGID_3_" gradientUnits="userSpaceOnUse" x1="324.384" y1="161.4217" x2="324.384" y2="-39.8005">
		<stop  offset="2.544529e-02" style="stop-color:#BCBEC0"/>
		<stop  offset="0.9443" style="stop-color:#F0F1F1"/>
		<stop  offset="0.9594" style="stop-color:#F1F2F2"/>
	</linearGradient>
	<path fill="url(#SVGID_3_)" d="M351.4,93.4h-54.1V12.6h52.3v8.6h-42.8V48h40.4v8.5h-40.4v28.3h44.6V93.4z"/>
	<linearGradient id="SVGID_4_" gradientUnits="userSpaceOnUse" x1="457.3578" y1="161.4217" x2="457.3578" y2="-39.8005">
		<stop  offset="2.544529e-02" style="stop-color:#BCBEC0"/>
		<stop  offset="0.9443" style="stop-color:#F0F1F1"/>
		<stop  offset="0.9594" style="stop-color:#F1F2F2"/>
	</linearGradient>
	<path fill="url(#SVGID_4_)" d="M490,93.4h-11.6L436.7,29c-1.1-1.6-1.9-3.3-2.6-5.1h-0.3c0.3,1.7,0.5,5.4,0.5,11.1v58.4h-9.5V12.6
		h12.3L477.5,76c1.7,2.6,2.8,4.4,3.3,5.4h0.2c-0.4-2.3-0.6-6.3-0.6-11.9v-57h9.5V93.4z"/>
	<linearGradient id="SVGID_5_" gradientUnits="userSpaceOnUse" x1="589.0529" y1="165.0515" x2="589.0529" y2="-42.9074">
		<stop  offset="2.544529e-02" style="stop-color:#BCBEC0"/>
		<stop  offset="0.9443" style="stop-color:#F0F1F1"/>
		<stop  offset="0.9594" style="stop-color:#F1F2F2"/>
	</linearGradient>
	<path fill="url(#SVGID_5_)" d="M564.5,90.2V79c1.3,1.1,2.8,2.1,4.6,3c1.8,0.9,3.7,1.7,5.6,2.3c2,0.6,4,1.1,6,1.4
		c2,0.3,3.8,0.5,5.5,0.5c5.8,0,10.2-1.1,13.1-3.2c2.9-2.2,4.3-5.3,4.3-9.3c0-2.2-0.5-4.1-1.4-5.7c-1-1.6-2.3-3.1-4-4.4
		c-1.7-1.3-3.7-2.6-6-3.8c-2.3-1.2-4.8-2.5-7.5-3.9c-2.8-1.4-5.5-2.9-7.9-4.3c-2.4-1.5-4.6-3.1-6.4-4.9c-1.8-1.8-3.2-3.8-4.3-6
		c-1-2.2-1.6-4.9-1.6-7.9c0-3.7,0.8-6.9,2.4-9.6c1.6-2.7,3.7-5,6.4-6.7c2.6-1.8,5.6-3.1,9-3.9s6.8-1.3,10.3-1.3c8,0,13.8,1,17.4,2.9
		v10.7c-4.8-3.3-10.9-5-18.4-5c-2.1,0-4.1,0.2-6.2,0.6c-2.1,0.4-3.9,1.1-5.5,2.1c-1.6,1-2.9,2.2-3.9,3.8c-1,1.5-1.5,3.4-1.5,5.6
		c0,2.1,0.4,3.9,1.2,5.4c0.8,1.5,1.9,2.9,3.4,4.1c1.5,1.2,3.3,2.4,5.5,3.6c2.2,1.2,4.7,2.4,7.5,3.8c2.9,1.4,5.6,2.9,8.2,4.5
		c2.6,1.6,4.9,3.3,6.8,5.2c2,1.9,3.5,4,4.7,6.4c1.1,2.3,1.7,5,1.7,8c0,4-0.8,7.4-2.3,10.1c-1.6,2.8-3.7,5-6.3,6.7
		c-2.7,1.7-5.7,3-9.2,3.8c-3.5,0.8-7.1,1.2-10.9,1.2c-1.3,0-2.9-0.1-4.7-0.3c-1.9-0.2-3.8-0.5-5.8-0.9c-2-0.4-3.8-0.9-5.6-1.5
		C567,91.5,565.6,90.9,564.5,90.2z"/>
	<linearGradient id="SVGID_6_" gradientUnits="userSpaceOnUse" x1="717.7972" y1="161.4217" x2="717.7972" y2="-39.8005">
		<stop  offset="2.544529e-02" style="stop-color:#BCBEC0"/>
		<stop  offset="0.9443" style="stop-color:#F0F1F1"/>
		<stop  offset="0.9594" style="stop-color:#F1F2F2"/>
	</linearGradient>
	<path fill="url(#SVGID_6_)" d="M696.9,62.9v30.6h-9.5V12.6h33.4c8.6,0,15.4,2.1,20.1,6.3c4.8,4.2,7.1,10.2,7.1,17.8
		s-2.6,14-7.9,18.8s-12.4,7.3-21.4,7.3H696.9z M696.9,21.1v33.2h21.2c6.5,0,11.5-1.5,15-4.5c3.4-3,5.2-7.2,5.2-12.7
		c0-10.7-6.3-16-19-16H696.9z"/>
	<linearGradient id="SVGID_7_" gradientUnits="userSpaceOnUse" x1="851.5319" y1="161.4217" x2="851.5319" y2="-39.8005">
		<stop  offset="2.544529e-02" style="stop-color:#BCBEC0"/>
		<stop  offset="0.9443" style="stop-color:#F0F1F1"/>
		<stop  offset="0.9594" style="stop-color:#F1F2F2"/>
	</linearGradient>
	<path fill="url(#SVGID_7_)" d="M881.9,93.4h-9.5V56.6h-41.9v36.9h-9.5V12.6h9.5V48h41.9V12.6h9.5V93.4z"/>
	<linearGradient id="SVGID_8_" gradientUnits="userSpaceOnUse" x1="987.9455" y1="161.4217" x2="987.9455" y2="-39.8005">
		<stop  offset="2.544529e-02" style="stop-color:#BCBEC0"/>
		<stop  offset="0.9443" style="stop-color:#F0F1F1"/>
		<stop  offset="0.9594" style="stop-color:#F1F2F2"/>
	</linearGradient>
	<path fill="url(#SVGID_8_)" d="M1015,93.4h-54.1V12.6h52.3v8.6h-42.8V48h40.4v8.5h-40.4v28.3h44.6V93.4z"/>
	<linearGradient id="SVGID_9_" gradientUnits="userSpaceOnUse" x1="1122.9224" y1="161.4217" x2="1122.9224" y2="-39.8005">
		<stop  offset="2.544529e-02" style="stop-color:#BCBEC0"/>
		<stop  offset="0.9443" style="stop-color:#F0F1F1"/>
		<stop  offset="0.9594" style="stop-color:#F1F2F2"/>
	</linearGradient>
	<path fill="url(#SVGID_9_)" d="M1157.5,93.4h-11.3l-13.5-22.7c-1.2-2.1-2.4-3.9-3.6-5.4c-1.2-1.5-2.4-2.7-3.6-3.6
		c-1.2-0.9-2.5-1.6-3.9-2.1c-1.4-0.4-14.2-0.6-16-0.6h-7.8v34.4h-9.5V12.6h35.4c3.5,0,6.8,0.4,9.8,1.3c3,0.9,5.6,2.2,7.8,4
		c2.2,1.8,3.9,4.1,5.2,6.7c1.2,2.7,1.9,5.8,1.9,9.4c0,2.8-0.4,5.4-1.3,7.8c-0.8,2.4-2.1,4.4-3.6,6.3c-1.6,1.8-3.4,3.4-5.6,4.7
		c-2.2,1.3-4.7,2.3-7.4,3v0.2c1.4,0.6,2.5,1.3,3.5,2.1c1,0.8,1.9,1.7,2.8,2.7c0.9,1.1,1.8,2.2,2.7,3.6c0.9,1.3,1.9,2.9,3,4.7
		L1157.5,93.4z M1097.8,21.1v29.3h24.1c2.4,0,4.6-0.4,6.6-1.1c2-0.7,3.8-1.7,5.2-3.1c1.5-1.3,2.6-3,3.4-4.9c0.8-1.9,1.2-4.1,1.2-6.5
		c0-4.3-1.4-7.7-4.2-10.1c-2.8-2.4-6.9-3.6-12.2-3.6H1097.8z"/>
	<linearGradient id="SVGID_10_" gradientUnits="userSpaceOnUse" x1="1253.4432" y1="161.4217" x2="1253.4432" y2="-39.8005">
		<stop  offset="2.544529e-02" style="stop-color:#BCBEC0"/>
		<stop  offset="0.9443" style="stop-color:#F0F1F1"/>
		<stop  offset="0.9594" style="stop-color:#F1F2F2"/>
	</linearGradient>
	<path fill="url(#SVGID_10_)" d="M1280.5,93.4h-54.1V12.6h52.3v8.6h-42.8V48h40.4v8.5h-40.4v28.3h44.6V93.4z"/>
</g>
</svg>
